{
  "accessors": [
    {
      "bufferView": 2,
      "componentType": 5126,
      "count": 21003,
      "max": [
        10.637434959411621,
        9.498759269714355,
        8.45998477935791
      ],
      "min": [
        -10.850455284118652,
        -12.114766120910645,
        0.6519560217857361
      ],
      "type": "VEC3"
    },
    {
      "bufferView": 2,
      "byteOffset": 252036,
      "componentType": 5126,
      "count": 21003,
      "max": [
        0.9995167255401611,
        0.9999715089797974,
        0.9999421238899231
      ],
      "min": [
        -0.9998643398284912,
        -0.9981964230537415,
        -0.9980840086936951
      ],
      "type": "VEC3"
    },
    {
      "bufferView": 1,
      "componentType": 5126,
      "count": 21003,
      "max": [
        0.9996070265769958,
        0.9997320175170898
      ],
      "min": [
        0.0002579999854788184,
        0.0005009999731555581
      ],
      "type": "VEC2"
    },
    {
      "bufferView": 0,
      "componentType": 5125,
      "count": 60330,
      "type": "SCALAR"
    }
  ],
  "asset": {
    "extras": {
      "author": "CL4PTRAP (https://sketchfab.com/Gian.Flower)",
      "license": "CC-BY-4.0 (http://creativecommons.org/licenses/by/4.0/)",
      "source": "https://sketchfab.com/3d-models/rock-photoscanned-e4857644bde84f54aadde9fc129785ae",
      "title": "Rock Photoscanned"
    },
    "generator": "Sketchfab-13.12.0",
    "version": "2.0"
  },
  "bufferViews": [
    {
      "buffer": 0,
      "byteLength": 241320,
      "name": "floatBufferViews",
      "target": 34963
    },
    {
      "buffer": 0,
      "byteLength": 168024,
      "byteOffset": 241320,
      "byteStride": 8,
      "name": "floatBufferViews",
      "target": 34962
    },
    {
      "buffer": 0,
      "byteLength": 504072,
      "byteOffset": 409344,
      "byteStride": 12,
      "name": "floatBufferViews",
      "target": 34962
    }
  ],
  "buffers": [
    {
      "byteLength": 913416,
      "uri": "scene.bin"
    }
  ],
  "images": [
    {
      "uri": "textures/Rock_0_baseColor.jpeg"
    }
  ],
  "materials": [
    {
      "doubleSided": true,
      "name": "Rock_0",
      "pbrMetallicRoughness": {
        "baseColorTexture": {
          "index": 0
        },
        "metallicFactor": 0.0
      }
    }
  ],
  "meshes": [
    {
      "name": "Object_0",
      "primitives": [
        {
          "attributes": {
            "NORMAL": 1,
            "POSITION": 0,
            "TEXCOORD_0": 2
          },
          "indices": 3,
          "material": 0,
          "mode": 4
        }
      ]
    }
  ],
  "nodes": [
    {
      "children": [
        1
      ],
      "matrix": [
        1.0,
        0.0,
        0.0,
        0.0,
        0.0,
        2.220446049250313e-16,
        -1.0,
        0.0,
        0.0,
        1.0,
        2.220446049250313e-16,
        0.0,
        0.0,
        0.0,
        0.0,
        1.0
      ],
      "name": "Sketchfab_model"
    },
    {
      "children": [
        2
      ],
      "name": "Rock.obj.cleaner.materialmerger.gles"
    },
    {
      "mesh": 0,
      "name": "Object_2"
    }
  ],
  "samplers": [
    {
      "magFilter": 9729,
      "minFilter": 9987,
      "wrapS": 10497,
      "wrapT": 10497
    }
  ],
  "scene": 0,
  "scenes": [
    {
      "name": "Sketchfab_Scene",
      "nodes": [
        0
      ]
    }
  ],
  "textures": [
    {
      "sampler": 0,
      "source": 0
    }
  ]
}
