{
  "accessors": [
    {
      "bufferView": 2,
      "componentType": 5126,
      "count": 8045,
      "max": [
        38.516414642333984,
        77.59627532958984,
        2.3377201557159424
      ],
      "min": [
        -42.861968994140625,
        15.280662536621094,
        -41.536251068115234
      ],
      "type": "VEC3"
    },
    {
      "bufferView": 2,
      "byteOffset": 96540,
      "componentType": 5126,
      "count": 8045,
      "max": [
        0.9998511672019958,
        0.999565601348877,
        0.9977961778640747
      ],
      "min": [
        -0.9997393488883972,
        -0.999742865562439,
        -0.9999945163726807
      ],
      "type": "VEC3"
    },
    {
      "bufferView": 1,
      "componentType": 5126,
      "count": 8045,
      "max": [
        0.9976518154144287,
        1.0011610984802246
      ],
      "min": [
        0.0016629729652777314,
        0.0014654709957540035
      ],
      "type": "VEC2"
    },
    {
      "bufferView": 0,
      "componentType": 5125,
      "count": 41142,
      "type": "SCALAR"
    },
    {
      "bufferView": 2,
      "byteOffset": 193080,
      "componentType": 5126,
      "count": 11388,
      "max": [
        38.47353744506836,
        76.75642395019531,
        5.661828994750977
      ],
      "min": [
        -49.0430908203125,
        12.703185081481934,
        -47.748538970947266
      ],
      "type": "VEC3"
    },
    {
      "bufferView": 2,
      "byteOffset": 329736,
      "componentType": 5126,
      "count": 11388,
      "max": [
        0.999571681022644,
        0.9897995591163635,
        0.9995958209037781
      ],
      "min": [
        -0.9981600642204285,
        -0.9999867677688599,
        -0.9999997615814209
      ],
      "type": "VEC3"
    },
    {
      "bufferView": 1,
      "byteOffset": 64360,
      "componentType": 5126,
      "count": 11388,
      "max": [
        1.9984842538833618,
        1.0084471702575684
      ],
      "min": [
        1.0011099576950073,
        0.002545221010223031
      ],
      "type": "VEC2"
    },
    {
      "bufferView": 0,
      "byteOffset": 164568,
      "componentType": 5125,
      "count": 60216,
      "type": "SCALAR"
    },
    {
      "bufferView": 2,
      "byteOffset": 466392,
      "componentType": 5126,
      "count": 12251,
      "max": [
        38.52973556518555,
        78.09577178955078,
        6.246837139129639
      ],
      "min": [
        -46.631385803222656,
        11.06344223022461,
        -47.41518783569336
      ],
      "type": "VEC3"
    },
    {
      "bufferView": 2,
      "byteOffset": 613404,
      "componentType": 5126,
      "count": 12251,
      "max": [
        0.999610960483551,
        0.9993928670883179,
        0.9985123872756958
      ],
      "min": [
        -0.9995939135551453,
        -0.9998294711112976,
        -0.9999845623970032
      ],
      "type": "VEC3"
    },
    {
      "bufferView": 1,
      "byteOffset": 155464,
      "componentType": 5126,
      "count": 12251,
      "max": [
        2.9966297149658203,
        0.9996262192726135
      ],
      "min": [
        2.0023577213287354,
        -0.001185382017865777
      ],
      "type": "VEC2"
    },
    {
      "bufferView": 0,
      "byteOffset": 405432,
      "componentType": 5125,
      "count": 44811,
      "type": "SCALAR"
    },
    {
      "bufferView": 2,
      "byteOffset": 760416,
      "componentType": 5126,
      "count": 9478,
      "max": [
        38.531368255615234,
        78.09649658203125,
        9.291574478149414
      ],
      "min": [
        -49.33555603027344,
        10.857743263244629,
        -47.57941818237305
      ],
      "type": "VEC3"
    },
    {
      "bufferView": 2,
      "byteOffset": 874152,
      "componentType": 5126,
      "count": 9478,
      "max": [
        0.9999975562095642,
        0.9941306710243225,
        0.9965786933898926
      ],
      "min": [
        -0.9992751479148865,
        -0.9999114871025085,
        -0.9999085664749146
      ],
      "type": "VEC3"
    },
    {
      "bufferView": 1,
      "byteOffset": 253472,
      "componentType": 5126,
      "count": 9478,
      "max": [
        3.999770164489746,
        0.9992424249649048
      ],
      "min": [
        3.003218650817871,
        0.0012693010503426194
      ],
      "type": "VEC2"
    },
    {
      "bufferView": 0,
      "byteOffset": 584676,
      "componentType": 5125,
      "count": 44955,
      "type": "SCALAR"
    },
    {
      "bufferView": 2,
      "byteOffset": 987888,
      "componentType": 5126,
      "count": 9721,
      "max": [
        38.471763610839844,
        78.115234375,
        4.655147552490234
      ],
      "min": [
        -48.86699676513672,
        10.129426002502441,
        -47.76962661743164
      ],
      "type": "VEC3"
    },
    {
      "bufferView": 2,
      "byteOffset": 1104540,
      "componentType": 5126,
      "count": 9721,
      "max": [
        0.9998511672019958,
        0.9998770356178284,
        0.9998061060905457
      ],
      "min": [
        -0.9997304677963257,
        -0.9999850988388062,
        -0.9999601244926453
      ],
      "type": "VEC3"
    },
    {
      "bufferView": 1,
      "byteOffset": 329296,
      "componentType": 5126,
      "count": 9721,
      "max": [
        4.99599027633667,
        1.000487208366394
      ],
      "min": [
        4.002483367919922,
        -0.0057826838456094265
      ],
      "type": "VEC2"
    },
    {
      "bufferView": 0,
      "byteOffset": 764496,
      "componentType": 5125,
      "count": 44409,
      "type": "SCALAR"
    },
    {
      "bufferView": 2,
      "byteOffset": 1221192,
      "componentType": 5126,
      "count": 9971,
      "max": [
        36.77593231201172,
        78.018798828125,
        2.166072130203247
      ],
      "min": [
        -48.08439636230469,
        12.486085891723633,
        -41.61960983276367
      ],
      "type": "VEC3"
    },
    {
      "bufferView": 2,
      "byteOffset": 1340844,
      "componentType": 5126,
      "count": 9971,
      "max": [
        0.9996891617774963,
        0.9995821118354797,
        0.9983052611351013
      ],
      "min": [
        -0.9998832941055298,
        -0.999740719795227,
        -0.9999973177909851
      ],
      "type": "VEC3"
    },
    {
      "bufferView": 1,
      "byteOffset": 407064,
      "componentType": 5126,
      "count": 9971,
      "max": [
        5.996496200561523,
        0.9997316002845764
      ],
      "min": [
        5.002196311950684,
        -0.0006311470060609281
      ],
      "type": "VEC2"
    },
    {
      "bufferView": 0,
      "byteOffset": 942132,
      "componentType": 5125,
      "count": 45657,
      "type": "SCALAR"
    },
    {
      "bufferView": 2,
      "byteOffset": 1460496,
      "componentType": 5126,
      "count": 9472,
      "max": [
        38.31318664550781,
        77.68865966796875,
        9.28735065460205
      ],
      "min": [
        -48.83659744262695,
        10.845887184143066,
        -47.45328140258789
      ],
      "type": "VEC3"
    },
    {
      "bufferView": 2,
      "byteOffset": 1574160,
      "componentType": 5126,
      "count": 9472,
      "max": [
        0.9997304081916809,
        0.9998767971992493,
        0.9997767806053162
      ],
      "min": [
        -0.9997393488883972,
        -0.9998767971992493,
        -0.9999921321868896
      ],
      "type": "VEC3"
    },
    {
      "bufferView": 1,
      "byteOffset": 486832,
      "componentType": 5126,
      "count": 9472,
      "max": [
        6.996850967407227,
        0.999104917049408
      ],
      "min": [
        6.001812934875488,
        -0.001929663005284965
      ],
      "type": "VEC2"
    },
    {
      "bufferView": 0,
      "byteOffset": 1124760,
      "componentType": 5125,
      "count": 40551,
      "type": "SCALAR"
    },
    {
      "bufferView": 2,
      "byteOffset": 1687824,
      "componentType": 5126,
      "count": 10041,
      "max": [
        38.44304656982422,
        78.19942474365234,
        8.854109764099121
      ],
      "min": [
        -49.388648986816406,
        12.232609748840332,
        -47.42490768432617
      ],
      "type": "VEC3"
    },
    {
      "bufferView": 2,
      "byteOffset": 1808316,
      "componentType": 5126,
      "count": 10041,
      "max": [
        0.9994775652885437,
        0.9994305372238159,
        0.999825656414032
      ],
      "min": [
        -0.9998794198036194,
        -0.9998806715011597,
        -0.9999258518218994
      ],
      "type": "VEC3"
    },
    {
      "bufferView": 1,
      "byteOffset": 562608,
      "componentType": 5126,
      "count": 10041,
      "max": [
        7.996323108673096,
        0.9995527267456055
      ],
      "min": [
        7.000698566436768,
        0.0006104179774411023
      ],
      "type": "VEC2"
    },
    {
      "bufferView": 0,
      "byteOffset": 1286964,
      "componentType": 5125,
      "count": 39273,
      "type": "SCALAR"
    },
    {
      "bufferView": 2,
      "byteOffset": 1928808,
      "componentType": 5126,
      "count": 11428,
      "max": [
        38.523643493652344,
        78.19942474365234,
        10.052977561950684
      ],
      "min": [
        -48.99641799926758,
        12.745174407958984,
        -46.87929153442383
      ],
      "type": "VEC3"
    },
    {
      "bufferView": 2,
      "byteOffset": 2065944,
      "componentType": 5126,
      "count": 11428,
      "max": [
        0.9994555115699768,
        0.9999613165855408,
        0.9997548460960388
      ],
      "min": [
        -0.9998661279678345,
        -0.9998646974563599,
        -0.9999258518218994
      ],
      "type": "VEC3"
    },
    {
      "bufferView": 1,
      "byteOffset": 642936,
      "componentType": 5126,
      "count": 11428,
      "max": [
        9.000504493713379,
        1.0005481243133545
      ],
      "min": [
        7.997835636138916,
        -0.09434127807617188
      ],
      "type": "VEC2"
    },
    {
      "bufferView": 0,
      "byteOffset": 1444056,
      "componentType": 5125,
      "count": 34467,
      "type": "SCALAR"
    }
  ],
  "asset": {
    "extras": {
      "author": "Nikitos & 3130 (https://sketchfab.com/vrcityphoto)",
      "license": "CC-BY-4.0 (http://creativecommons.org/licenses/by/4.0/)",
      "source": "https://sketchfab.com/3d-models/waterfall-fa9108e6569547f29e30b2d956c9b9fb",
      "title": "WATERFALL"
    },
    "generator": "Sketchfab-12.68.0",
    "version": "2.0"
  },
  "bufferViews": [
    {
      "buffer": 0,
      "byteLength": 1581924,
      "name": "floatBufferViews",
      "target": 34963
    },
    {
      "buffer": 0,
      "byteLength": 734360,
      "byteOffset": 1581924,
      "byteStride": 8,
      "name": "floatBufferViews",
      "target": 34962
    },
    {
      "buffer": 0,
      "byteLength": 2203080,
      "byteOffset": 2316284,
      "byteStride": 12,
      "name": "floatBufferViews",
      "target": 34962
    }
  ],
  "buffers": [
    {
      "byteLength": 4519364,
      "uri": "scene.bin"
    }
  ],
  "extensionsUsed": [
    "KHR_materials_unlit"
  ],
  "images": [
    {
      "uri": "textures/27_WATERFALL.1001_baseColor.jpeg"
    },
    {
      "uri": "textures/27_WATERFALL.1002_baseColor.jpeg"
    },
    {
      "uri": "textures/27_WATERFALL.1003_baseColor.jpeg"
    },
    {
      "uri": "textures/27_WATERFALL.1004_baseColor.jpeg"
    },
    {
      "uri": "textures/27_WATERFALL.1005_baseColor.jpeg"
    },
    {
      "uri": "textures/27_WATERFALL.1006_baseColor.jpeg"
    },
    {
      "uri": "textures/27_WATERFALL.1007_baseColor.jpeg"
    },
    {
      "uri": "textures/27_WATERFALL.1008_baseColor.jpeg"
    },
    {
      "uri": "textures/27_WATERFALL.1009_baseColor.jpeg"
    }
  ],
  "materials": [
    {
      "doubleSided": true,
      "extensions": {
        "KHR_materials_unlit": {}
      },
      "name": "27_WATERFALL.1001",
      "pbrMetallicRoughness": {
        "baseColorTexture": {
          "index": 0
        },
        "metallicFactor": 0.0
      }
    },
    {
      "doubleSided": true,
      "extensions": {
        "KHR_materials_unlit": {}
      },
      "name": "27_WATERFALL.1002",
      "pbrMetallicRoughness": {
        "baseColorTexture": {
          "index": 1
        },
        "metallicFactor": 0.0
      }
    },
    {
      "doubleSided": true,
      "extensions": {
        "KHR_materials_unlit": {}
      },
      "name": "27_WATERFALL.1003",
      "pbrMetallicRoughness": {
        "baseColorTexture": {
          "index": 2
        },
        "metallicFactor": 0.0
      }
    },
    {
      "doubleSided": true,
      "extensions": {
        "KHR_materials_unlit": {}
      },
      "name": "27_WATERFALL.1004",
      "pbrMetallicRoughness": {
        "baseColorTexture": {
          "index": 3
        },
        "metallicFactor": 0.0
      }
    },
    {
      "doubleSided": true,
      "extensions": {
        "KHR_materials_unlit": {}
      },
      "name": "27_WATERFALL.1005",
      "pbrMetallicRoughness": {
        "baseColorTexture": {
          "index": 4
        },
        "metallicFactor": 0.0
      }
    },
    {
      "doubleSided": true,
      "extensions": {
        "KHR_materials_unlit": {}
      },
      "name": "27_WATERFALL.1006",
      "pbrMetallicRoughness": {
        "baseColorTexture": {
          "index": 5
        },
        "metallicFactor": 0.0
      }
    },
    {
      "doubleSided": true,
      "extensions": {
        "KHR_materials_unlit": {}
      },
      "name": "27_WATERFALL.1007",
      "pbrMetallicRoughness": {
        "baseColorTexture": {
          "index": 6
        },
        "metallicFactor": 0.0
      }
    },
    {
      "doubleSided": true,
      "extensions": {
        "KHR_materials_unlit": {}
      },
      "name": "27_WATERFALL.1008",
      "pbrMetallicRoughness": {
        "baseColorTexture": {
          "index": 7
        },
        "metallicFactor": 0.0
      }
    },
    {
      "doubleSided": true,
      "extensions": {
        "KHR_materials_unlit": {}
      },
      "name": "27_WATERFALL.1009",
      "pbrMetallicRoughness": {
        "baseColorTexture": {
          "index": 8
        },
        "metallicFactor": 0.0
      }
    }
  ],
  "meshes": [
    {
      "name": "Object_0",
      "primitives": [
        {
          "attributes": {
            "NORMAL": 1,
            "POSITION": 0,
            "TEXCOORD_0": 2
          },
          "indices": 3,
          "material": 0,
          "mode": 4
        }
      ]
    },
    {
      "name": "Object_1",
      "primitives": [
        {
          "attributes": {
            "NORMAL": 5,
            "POSITION": 4,
            "TEXCOORD_0": 6
          },
          "indices": 7,
          "material": 1,
          "mode": 4
        }
      ]
    },
    {
      "name": "Object_2",
      "primitives": [
        {
          "attributes": {
            "NORMAL": 9,
            "POSITION": 8,
            "TEXCOORD_0": 10
          },
          "indices": 11,
          "material": 2,
          "mode": 4
        }
      ]
    },
    {
      "name": "Object_3",
      "primitives": [
        {
          "attributes": {
            "NORMAL": 13,
            "POSITION": 12,
            "TEXCOORD_0": 14
          },
          "indices": 15,
          "material": 3,
          "mode": 4
        }
      ]
    },
    {
      "name": "Object_4",
      "primitives": [
        {
          "attributes": {
            "NORMAL": 17,
            "POSITION": 16,
            "TEXCOORD_0": 18
          },
          "indices": 19,
          "material": 4,
          "mode": 4
        }
      ]
    },
    {
      "name": "Object_5",
      "primitives": [
        {
          "attributes": {
            "NORMAL": 21,
            "POSITION": 20,
            "TEXCOORD_0": 22
          },
          "indices": 23,
          "material": 5,
          "mode": 4
        }
      ]
    },
    {
      "name": "Object_6",
      "primitives": [
        {
          "attributes": {
            "NORMAL": 25,
            "POSITION": 24,
            "TEXCOORD_0": 26
          },
          "indices": 27,
          "material": 6,
          "mode": 4
        }
      ]
    },
    {
      "name": "Object_7",
      "primitives": [
        {
          "attributes": {
            "NORMAL": 29,
            "POSITION": 28,
            "TEXCOORD_0": 30
          },
          "indices": 31,
          "material": 7,
          "mode": 4
        }
      ]
    },
    {
      "name": "Object_8",
      "primitives": [
        {
          "attributes": {
            "NORMAL": 33,
            "POSITION": 32,
            "TEXCOORD_0": 34
          },
          "indices": 35,
          "material": 8,
          "mode": 4
        }
      ]
    }
  ],
  "nodes": [
    {
      "children": [
        1
      ],
      "matrix": [
        0.9899383783340454,
        4.5296880181991726e-17,
        -0.14149901270866394,
        0.0,
        -2.7755575615628914e-17,
        -1.0,
        -3.8424124992886277e-16,
        0.0,
        -0.14149901270866394,
        3.8287448285912915e-16,
        -0.9899383783340454,
        0.0,
        -2.7230215072631836,
        25.30654335021974,
        -63.601123809814446,
        1.0
      ],
      "name": "Sketchfab_model"
    },
    {
      "children": [
        2,
        3,
        4,
        5,
        6,
        7,
        8,
        9,
        10
      ],
      "name": "27 WATERFALL.obj.cleaner.materialmerger.gles"
    },
    {
      "mesh": 0,
      "name": "Object_2"
    },
    {
      "mesh": 1,
      "name": "Object_3"
    },
    {
      "mesh": 2,
      "name": "Object_4"
    },
    {
      "mesh": 3,
      "name": "Object_5"
    },
    {
      "mesh": 4,
      "name": "Object_6"
    },
    {
      "mesh": 5,
      "name": "Object_7"
    },
    {
      "mesh": 6,
      "name": "Object_8"
    },
    {
      "mesh": 7,
      "name": "Object_9"
    },
    {
      "mesh": 8,
      "name": "Object_10"
    }
  ],
  "samplers": [
    {
      "magFilter": 9729,
      "minFilter": 9987,
      "wrapS": 10497,
      "wrapT": 10497
    }
  ],
  "scene": 0,
  "scenes": [
    {
      "name": "Sketchfab_Scene",
      "nodes": [
        0
      ]
    }
  ],
  "textures": [
    {
      "sampler": 0,
      "source": 0
    },
    {
      "sampler": 0,
      "source": 1
    },
    {
      "sampler": 0,
      "source": 2
    },
    {
      "sampler": 0,
      "source": 3
    },
    {
      "sampler": 0,
      "source": 4
    },
    {
      "sampler": 0,
      "source": 5
    },
    {
      "sampler": 0,
      "source": 6
    },
    {
      "sampler": 0,
      "source": 7
    },
    {
      "sampler": 0,
      "source": 8
    }
  ]
}
